<?xml version="1.0" encoding="UTF-8"?>
<!DOCTYPE svg PUBLIC "-//W3C//DTD SVG 1.1//EN" "http://www.w3.org/Graphics/SVG/1.1/DTD/svg11.dtd">
<!-- Creator: CorelDRAW -->
<svg xmlns="http://www.w3.org/2000/svg" xml:space="preserve" width="64px" height="64px" shape-rendering="geometricPrecision" text-rendering="geometricPrecision" image-rendering="optimizeQuality" fill-rule="evenodd" clip-rule="evenodd"
viewBox="0 0 640 640"
 xmlns:xlink="http://www.w3.org/1999/xlink">
 <g id="Layer_x0020_1">
  <metadata id="CorelCorpID_0Corel-Layer"/>
  <path fill="black" d="M446.037 117.627c94.4539,-101.966 110.375,-9.34263 179.884,10.1458 8.40955,2.33861 14.6577,2.91736 14.0435,6.89772 -6.07094,39.969 -19.1105,47.4927 -33.6382,47.8825 -16.0868,0.448824 -29.15,0.165356 -38.8115,4.7599 -12.3072,5.83472 -21.1892,13.4057 -27.7326,22.2404l-98.7768 -50.3746c3.21264,-11.7285 4.96069,-25.4649 5.03156,-41.5517zm93.5799 92.1507c-2.1142,2.87011 -3.98036,5.88196 -5.63393,9.01192 1.65356,-3.12996 3.51973,-6.14181 5.63393,-9.01192zm-5.66936 9.08279c-1.12206,2.12601 -2.14963,4.29927 -3.08272,6.51977 0.944894,-2.2205 1.96065,-4.40557 3.08272,-6.51977zm-3.09453 6.5552c-0.460636,1.09844 -0.897649,2.19688 -1.31104,3.31894 0.413391,-1.12206 0.850404,-2.2205 1.31104,-3.31894zm-1.33466 3.35437c-21.0239,56.0322 7.02765,139.372 -87.0483,170.081 -5.68117,47.7171 -5.43314,95.4697 1.25198,143.175l11.4214 -1.21655c20.5987,-2.19688 20.3979,16.5002 10.6655,28.5476l-60.8157 0c-4.41738,-57.1897 -15.4726,-119.801 -10.8663,-174.392 -32.0437,8.57491 -51.3432,6.29535 -86.1507,-6.95678 -16.89,-6.42528 -86.5641,-48.0833 -105.45,-31.1342 -10.6419,9.57886 17.7522,47.788 -52.3707,115.679l1.25198 67.1229c4.18115,0 8.00797,0 11.8584,0 17.9648,0 16.9963,17.953 10.4883,29.6815l-34.654 0c-23.0436,0 -18.201,2.46853 -18.4845,-21.7798l-0.555125 -52.2526 -3.67327 -32.3744c0.070867,-19.2758 13.9017,-39.8036 0.673237,-85.7255 -8.72845,-30.3783 -8.03159,-54.5676 -30.8744,-57.9338 -21.2129,42.7682 -41.5044,81.9223 -59.3157,126.757 -1.20474,3.03547 -2.88193,5.90558 -4.34651,8.85838 -20.3034,46.7604 -28.8193,11.634 -17.4451,-16.1341l7.60639 -18.5199c9.7324,-39.2013 37.1816,-112.773 63.0835,-140.069 97.6075,-102.958 295.421,-5.58668 353.721,-94.702l100.029 43.2879zm-99.7571 -43.7013l0.744104 -1.18112c-0.248035,0.40158 -0.496069,0.791348 -0.744104,1.18112zm2.9646 -4.98431c0.30709,-0.566936 0.614181,-1.14568 0.921271,-1.72443 -0.30709,0.578747 -0.614181,1.15749 -0.921271,1.72443zm2.63389 -5.24416c0.389769,-0.838593 0.767726,-1.67719 1.13387,-2.5394 -0.366146,0.862215 -0.744104,1.70081 -1.13387,2.5394zm2.36223 -5.58668c0.425202,-1.09844 0.826782,-2.23231 1.22836,-3.37799 -0.389769,1.14568 -0.803159,2.27956 -1.22836,3.37799zm2.1142 -6.09456c0.389769,-1.24017 0.767726,-2.51578 1.12206,-3.8032 -0.354335,1.28742 -0.732292,2.56302 -1.12206,3.8032z"/>
 </g>
</svg>
